{
  "accessors": [
    {
      "bufferView": 2,
      "componentType": 5126,
      "count": 382,
      "max": [
        2.767258882522583,
        28.72934341430664,
        1.0
      ],
      "min": [
        -3.2351512908935547,
        -0.03700140863656998,
        -1.3698810338974
      ],
      "type": "VEC3"
    },
    {
      "bufferView": 2,
      "byteOffset": 4584,
      "componentType": 5126,
      "count": 382,
      "max": [
        0.9608388543128967,
        1.0,
        0.9914336800575256
      ],
      "min": [
        -0.9420682787895203,
        -1.0,
        -0.9944157600402832
      ],
      "type": "VEC3"
    },
    {
      "bufferView": 1,
      "componentType": 5126,
      "count": 382,
      "max": [
        0.875,
        1.0
      ],
      "min": [
        0.125,
        0.0
      ],
      "type": "VEC2"
    },
    {
      "bufferView": 0,
      "componentType": 5125,
      "count": 576,
      "type": "SCALAR"
    },
    {
      "bufferView": 2,
      "byteOffset": 9168,
      "componentType": 5126,
      "count": 1344,
      "max": [
        24.81011199951172,
        6.0059003829956055,
        21.83690071105957
      ],
      "min": [
        -24.82796859741211,
        -48.15802001953125,
        -21.248910903930664
      ],
      "type": "VEC3"
    },
    {
      "bufferView": 2,
      "byteOffset": 25296,
      "componentType": 5126,
      "count": 1344,
      "max": [
        0.9170880317687988,
        0.9998604655265808,
        0.9183544516563416
      ],
      "min": [
        -0.8891600370407104,
        -0.9999735355377197,
        -0.9100369811058044
      ],
      "type": "VEC3"
    },
    {
      "bufferView": 1,
      "byteOffset": 3056,
      "componentType": 5126,
      "count": 1344,
      "max": [
        0.875,
        0.9270504117012024
      ],
      "min": [
        0.125,
        0.0
      ],
      "type": "VEC2"
    },
    {
      "bufferView": 0,
      "byteOffset": 2304,
      "componentType": 5125,
      "count": 2088,
      "type": "SCALAR"
    }
  ],
  "asset": {
    "extras": {
      "author": "eucalyp555 (https://sketchfab.com/eucalyp555)",
      "license": "CC-BY-4.0 (http://creativecommons.org/licenses/by/4.0/)",
      "source": "https://sketchfab.com/3d-models/low-poly-pine-tree-c1d140fc15bd40928989d0ca79365e13",
      "title": "Low Poly pine tree"
    },
    "generator": "Sketchfab-12.68.0",
    "version": "2.0"
  },
  "bufferViews": [
    {
      "buffer": 0,
      "byteLength": 10656,
      "name": "floatBufferViews",
      "target": 34963
    },
    {
      "buffer": 0,
      "byteLength": 13808,
      "byteOffset": 10656,
      "byteStride": 8,
      "name": "floatBufferViews",
      "target": 34962
    },
    {
      "buffer": 0,
      "byteLength": 41424,
      "byteOffset": 24464,
      "byteStride": 12,
      "name": "floatBufferViews",
      "target": 34962
    }
  ],
  "buffers": [
    {
      "byteLength": 65888,
      "uri": "scene.bin"
    }
  ],
  "materials": [
    {
      "doubleSided": true,
      "name": "Material.001",
      "pbrMetallicRoughness": {
        "baseColorFactor": [
          0.0495487,
          0.0201557,
          0.00966105,
          1.0
        ],
        "metallicFactor": 0.0
      }
    },
    {
      "doubleSided": true,
      "name": "Material.002",
      "pbrMetallicRoughness": {
        "baseColorFactor": [
          0.0343376406,
          0.1611161057,
          0.0049051976,
          1.0
        ],
        "metallicFactor": 0.0
      }
    }
  ],
  "meshes": [
    {
      "name": "Object_0",
      "primitives": [
        {
          "attributes": {
            "NORMAL": 1,
            "POSITION": 0,
            "TEXCOORD_0": 2
          },
          "indices": 3,
          "material": 0,
          "mode": 4
        }
      ]
    },
    {
      "name": "Object_1",
      "primitives": [
        {
          "attributes": {
            "NORMAL": 5,
            "POSITION": 4,
            "TEXCOORD_0": 6
          },
          "indices": 7,
          "material": 1,
          "mode": 4
        }
      ]
    }
  ],
  "nodes": [
    {
      "children": [
        1
      ],
      "matrix": [
        1.0,
        0.0,
        0.0,
        0.0,
        0.0,
        2.220446049250313e-16,
        -1.0,
        0.0,
        0.0,
        1.0,
        2.220446049250313e-16,
        0.0,
        0.0,
        0.0,
        0.0,
        1.0
      ],
      "name": "Sketchfab_model"
    },
    {
      "children": [
        2
      ],
      "name": "root"
    },
    {
      "children": [
        3,
        5
      ],
      "matrix": [
        1.0,
        0.0,
        0.0,
        0.0,
        0.0,
        2.220446049250313e-16,
        1.0,
        0.0,
        0.0,
        -1.0,
        2.220446049250313e-16,
        0.0,
        0.0,
        0.0,
        0.0,
        1.0
      ],
      "name": "GLTF_SceneRootNode"
    },
    {
      "children": [
        4
      ],
      "name": "tronc_0"
    },
    {
      "mesh": 0,
      "name": "Object_4"
    },
    {
      "children": [
        6
      ],
      "matrix": [
        0.1724430135070263,
        0.0,
        -0.2998937780574163,
        0.0,
        0.0,
        0.39938661456108093,
        0.0,
        0.0,
        0.3459905276000582,
        0.0,
        0.19894927334176657,
        0.0,
        -0.10840892791748047,
        23.5118350982666,
        0.0,
        1.0
      ],
      "name": "Cube.005_1"
    },
    {
      "mesh": 1,
      "name": "Object_6"
    }
  ],
  "scene": 0,
  "scenes": [
    {
      "name": "Sketchfab_Scene",
      "nodes": [
        0
      ]
    }
  ]
}
